<mxfile host="app.diagrams.net" modified="2021-10-26T06:59:38.765Z" agent="5.0 (Windows NT 10.0; Win64; x64) AppleWebKit/537.36 (KHTML, like Gecko) Chrome/94.0.4606.81 Safari/537.36" etag="LzZnk6qgoYBXqgIUDXka" version="15.5.9" type="github">
  <diagram id="7V04dZ2h8zMrP7HicOCg" name="Page-1">
    <mxGraphModel dx="1831" dy="526" grid="1" gridSize="10" guides="1" tooltips="1" connect="1" arrows="1" fold="1" page="1" pageScale="1" pageWidth="850" pageHeight="1100" math="0" shadow="0">
      <root>
        <mxCell id="0" />
        <mxCell id="1" parent="0" />
        <mxCell id="3ithPh0rbJAK5-4rR8ho-3" value="Vertical Container" style="swimlane;" vertex="1" parent="1">
          <mxGeometry x="-840" y="40" width="135" height="80" as="geometry" />
        </mxCell>
        <mxCell id="3ithPh0rbJAK5-4rR8ho-5" value="UI summitted&lt;br&gt;&amp;nbsp;threshold" style="text;html=1;align=center;verticalAlign=middle;resizable=0;points=[];autosize=1;strokeColor=none;fillColor=none;" vertex="1" parent="3ithPh0rbJAK5-4rR8ho-3">
          <mxGeometry x="20" y="35" width="90" height="30" as="geometry" />
        </mxCell>
      </root>
    </mxGraphModel>
  </diagram>
</mxfile>
